<?xml version="1.0" standalone="no"?>
<!DOCTYPE svg PUBLIC "-//W3C//DTD SVG 20010904//EN"
 "http://www.w3.org/TR/2001/REC-SVG-20010904/DTD/svg10.dtd">
<svg version="1.0" xmlns="http://www.w3.org/2000/svg"
 width="620.000000pt" height="620.000000pt" viewBox="0 0 620.000000 620.000000"
 preserveAspectRatio="xMidYMid meet">
<metadata>
Created by potrace 1.14, written by Peter Selinger 2001-2017
</metadata>
<g transform="translate(0.000000,620.000000) scale(0.100000,-0.100000)"
fill="#000000" stroke="none">
<path d="M0 3100 l0 -3100 3100 0 3100 0 0 3100 0 3100 -3100 0 -3100 0 0
-3100z m792 422 c14 -14 25 -204 14 -247 -4 -14 -15 -29 -26 -35 -20 -11 -55
1 -129 44 -29 17 -49 11 -57 -18 -5 -20 11 -466 18 -496 2 -7 -8 -19 -22 -27
-32 -16 -172 -17 -188 -1 -9 9 -12 97 -12 332 0 198 -4 336 -11 360 -14 51 -5
82 28 95 42 15 369 10 385 -7z m1722 -4 c8 -13 19 -63 25 -113 16 -126 32
-199 40 -189 9 10 24 68 42 164 17 88 35 129 62 139 45 17 167 24 198 11 l30
-13 -5 -366 c-2 -201 -7 -374 -11 -383 -14 -35 -150 -52 -179 -22 -18 17 -20
130 -8 297 7 89 0 119 -17 75 -5 -14 -23 -96 -41 -184 -18 -87 -36 -167 -41
-176 -12 -23 -44 -31 -94 -24 -54 9 -58 18 -90 204 -31 184 -34 194 -45 187
-5 -3 -6 -54 -2 -123 3 -64 6 -146 7 -182 0 -62 -1 -65 -30 -79 -37 -19 -102
-18 -120 0 -22 22 -23 47 -26 409 -3 329 -2 343 17 354 26 15 135 33 211 35
55 1 64 -2 77 -21z m-1485 -157 c17 -17 18 -31 14 -157 -5 -162 3 -218 34
-222 26 -4 32 13 40 109 4 57 1 97 -12 154 l-19 78 22 18 c40 32 171 48 172
21 6 -93 5 -557 -1 -610 -15 -125 -69 -187 -190 -218 -113 -29 -211 7 -225 83
-8 45 16 80 74 105 45 20 46 21 22 30 -32 12 -60 37 -74 68 -6 14 -14 115 -17
235 -4 116 -10 224 -14 241 -8 37 6 51 72 69 66 18 80 18 102 -4z m583 7 c45
-9 66 -9 90 0 65 24 64 34 58 -365 -5 -389 -5 -387 -66 -448 -53 -54 -97 -67
-206 -63 -95 3 -101 4 -124 31 -27 32 -32 82 -9 113 36 53 150 72 191 33 29
-27 44 -17 44 27 l0 35 -60 -7 c-72 -8 -107 4 -136 49 -34 53 -49 132 -48 267
0 176 30 266 106 317 38 25 78 28 160 11z m1615 1 c59 -15 106 -63 129 -131
29 -82 26 -302 -5 -380 -39 -100 -124 -148 -224 -126 -120 25 -186 184 -157
380 19 137 63 211 145 249 47 22 53 22 112 8z m354 -10 l21 -21 38 21 c150 84
252 -98 221 -393 -20 -181 -57 -232 -181 -245 l-55 -6 0 -69 c0 -63 -2 -70
-27 -89 -39 -29 -128 -35 -152 -11 -16 16 -18 30 -12 123 3 58 9 205 12 327 6
198 5 226 -11 268 -17 45 -17 47 0 66 15 17 86 46 118 49 4 1 17 -9 28 -20z
m1004 4 c3 -10 3 -88 0 -173 -8 -167 -1 -210 34 -210 23 0 27 12 36 105 6 62
2 102 -22 225 -4 20 2 29 28 44 37 22 141 28 160 9 9 -9 9 -47 -1 -162 -11
-146 -11 -152 9 -185 37 -59 19 -218 -30 -267 -27 -27 -92 -26 -118 2 l-20 21
-44 -21 c-56 -27 -116 -27 -150 -1 -46 37 -56 93 -58 345 -2 127 0 236 5 243
9 15 91 40 132 41 22 1 34 -5 39 -16z m1096 -4 c108 -35 152 -97 128 -182 -15
-55 -44 -84 -130 -128 -89 -46 -124 -88 -97 -116 8 -8 22 -11 32 -7 13 5 16
13 11 36 -9 39 9 58 57 58 80 0 128 -49 128 -133 0 -175 -297 -224 -394 -65
-24 39 -29 58 -28 107 0 33 8 73 16 89 19 38 74 85 142 123 30 17 59 39 64 49
16 30 12 50 -10 50 -16 0 -20 -7 -20 -30 0 -47 -56 -65 -117 -38 -37 17 -52
37 -53 71 0 57 43 100 130 130 31 11 79 6 141 -14z m-1573 -91 l3 -98 29 0
c16 0 31 4 34 9 3 4 -2 33 -11 64 -8 31 -13 63 -10 71 10 26 67 48 131 49 l61
2 3 -307 2 -307 -22 -12 c-29 -16 -134 -17 -149 -2 -7 7 -10 47 -7 117 l3 106
-32 0 -33 0 0 -97 c0 -54 -4 -103 -8 -110 -11 -17 -95 -34 -131 -27 -52 11
-53 16 -41 216 11 176 9 218 -16 320 -12 50 2 73 48 88 24 7 48 14 53 16 6 1
28 2 50 1 l40 -2 3 -97z m980 0 l3 -98 34 0 c40 0 41 5 20 78 -13 42 -13 55
-3 71 18 29 61 44 129 45 l59 1 5 -297 c5 -288 5 -298 -15 -318 -11 -11 -28
-21 -37 -21 -10 -1 -29 -3 -42 -4 -14 -1 -40 2 -59 7 l-35 10 6 109 6 109 -35
0 -34 0 0 -105 0 -105 -27 -12 c-32 -13 -109 -16 -137 -5 -17 7 -18 18 -11
230 6 190 5 229 -9 267 -20 57 -20 84 -1 100 27 22 89 40 135 37 l45 -2 3 -97z"/>
<path d="M1062 2762 l-33 -18 31 -23 c40 -29 60 -22 60 24 0 40 -9 43 -58 17z"/>
<path d="M1509 3138 c-14 -25 -6 -123 12 -144 6 -8 22 -14 35 -14 37 0 45 74
15 153 -13 33 -45 36 -62 5z"/>
<path d="M3132 3158 c-21 -21 -15 -122 9 -152 43 -55 97 -12 85 68 -11 74 -60
118 -94 84z"/>
<path d="M3626 3144 c-10 -27 -6 -108 7 -134 8 -17 21 -25 37 -25 24 0 25 2
24 72 0 75 -12 103 -44 103 -10 0 -21 -7 -24 -16z"/>
</g>
</svg>
