<svg width="55" height="55" viewBox="0 0 55 55" fill="none" xmlns="http://www.w3.org/2000/svg">
<g clip-path="url(#clip0_502_2)">
<path d="M43.9142 0H39.3492V0.8096C39.3624 1.05215 39.3624 1.29525 39.3492 1.5378V14.4452C39.3492 16.1885 38.6574 17.8605 37.4258 19.0942C36.1941 20.3279 34.5233 21.0225 32.78 21.0254H17.2502C15.505 21.0254 13.8313 20.3321 12.5973 19.0981C11.3633 17.8641 10.67 16.1904 10.67 14.4452V10.2652L10.6436 0H7.7836C5.71865 0.00174946 3.73888 0.823273 2.27936 2.28403C0.819844 3.74479 -7.41087e-07 5.72525 0 7.7902L0 47.2054C0 49.2727 0.821214 51.2552 2.28299 52.717C3.74476 54.1788 5.72734 55 7.7946 55H47.2054C49.2727 55 51.2552 54.1788 52.717 52.717C54.1788 51.2552 55 49.2727 55 47.2054V11.0792C50.6726 6.7518 48.2482 4.3274 43.9142 0ZM46.9458 46.6224H7.293V32.0804C7.293 31.2932 7.44808 30.5138 7.74939 29.7865C8.05069 29.0593 8.49231 28.3986 9.04903 27.8421C9.60574 27.2856 10.2666 26.8442 10.994 26.5431C11.7213 26.2421 12.5008 26.0873 13.288 26.0876H40.9596C42.548 26.0888 44.071 26.7207 45.1935 27.8445C46.3161 28.9683 46.9464 30.492 46.9458 32.0804V46.6224Z" fill="#BF0C87"/>
<path d="M20.922 0H15.5276V13.1582H20.922V0Z" fill="#BF0C87"/>
<path d="M40.0268 31.5699H15.0524C14.6925 31.5982 14.3565 31.7611 14.1115 32.0262C13.8664 32.2912 13.7303 32.639 13.7303 32.9999C13.7303 33.3609 13.8664 33.7087 14.1115 33.9737C14.3565 34.2388 14.6925 34.4017 15.0524 34.4299H40.0268C40.3867 34.4017 40.7227 34.2388 40.9678 33.9737C41.2128 33.7087 41.3489 33.3609 41.3489 32.9999C41.3489 32.639 41.2128 32.2912 40.9678 32.0262C40.7227 31.7611 40.3867 31.5982 40.0268 31.5699Z" fill="#BF0C87"/>
<path d="M40.0268 38.4032H15.0524C14.6925 38.4315 14.3565 38.5944 14.1115 38.8594C13.8664 39.1245 13.7303 39.4722 13.7303 39.8332C13.7303 40.1942 13.8664 40.5419 14.1115 40.807C14.3565 41.072 14.6925 41.2349 15.0524 41.2632H40.0268C40.3867 41.2349 40.7227 41.072 40.9678 40.807C41.2128 40.5419 41.3489 40.1942 41.3489 39.8332C41.3489 39.4722 41.2128 39.1245 40.9678 38.8594C40.7227 38.5944 40.3867 38.4315 40.0268 38.4032Z" fill="#BF0C87"/>
</g>
<defs>
<clipPath id="clip0_502_2">
<rect width="55" height="55" fill="white"/>
</clipPath>
</defs>
</svg>
